Coordinates
version=1
nRows=4
nColumns=107
inDegrees=yes

Units are S.I. units (second, meters, Newtons, ...)
If the header above contains a line with 'inDegrees', this indicates whether rotational values are in degrees (yes) or radians (no).

endheader
time	sternoclavicular_r2	sternoclavicular_r3	unrotscap_r3	unrotscap_r2	acromioclavicular_r2	acromioclavicular_r3	acromioclavicular_r1	unrothum_r1	unrothum_r3	unrothum_r2	elv_angle	shoulder_elv	shoulder1_r2	shoulder_rot	elbow_flexion	pro_sup	deviation	flexion	proximal_distal_r1	proximal_distal_r3	cmc_flexion	cmc_abduction	mp_flexion	ip_flexion	mcp2_flexion	mcp2_abduction	pm2_flexion	md2_flexion	mcp3_flexion	mcp3_abduction	pm3_flexion	md3_flexion	mcp4_flexion	mcp4_abduction	pm4_flexion	md4_flexion	mcp5_flexion	mcp5_abduction	pm5_flexion	md5_flexion	bicpt_tx	bicpt_ty	bicpt_tz	bicpt2_tx	bicpt2_ty	bicpt2_tz	ptpt_tx	ptpt_ty	ptpt_tz	FCUpt_tx	FCUpt_ty	FCUpt_tz	EDCpt_tx	EDCpt_ty	EDCpt_tz	APLpt_tx	APLpt_ty	APLpt_tz	FPLpt_tx	FPLpt_ty	FPLpt_tz	FPLpt2_tx	FPLpt2_ty	FPLpt2_tz	PEC1pt2_tx	PEC1pt2_ty	PEC1pt2_tz	PEC1pt3_tx	PEC1pt3_ty	PEC1pt3_tz	PEC2pt2_tx	PEC2pt2_ty	PEC2pt2_tz	PEC2pt3_tx	PEC2pt3_ty	PEC2pt3_tz	PEC3pt2_tx	PEC3pt2_ty	PEC3pt2_tz	PEC3pt3_tx	PEC3pt3_ty	PEC3pt3_tz	DELT2pt2a_tx	DELT2pt2a_ty	DELT2pt2a_tz	DELT2pt2_tx	DELT2pt2_ty	DELT2pt2_tz	LAT1pt2_tx	LAT1pt2_ty	LAT1pt2_tz	LAT1pt3_tx	LAT1pt3_ty	LAT1pt3_tz	LAT2pt2_tx	LAT2pt2_ty	LAT2pt2_tz	LAT2pt3_tx	LAT2pt3_ty	LAT2pt3_tz	LAT3pt2_tx	LAT3pt2_ty	LAT3pt2_tz	LAT3pt3_tx	LAT3pt3_ty	LAT3pt3_tz
      0.40000000	     -0.31724191	      0.13436870	     -0.13436870	      0.31724191	     -0.06423503	      0.51912495	      0.23334309	     -0.23334309	     -0.51912495	      0.06423503	    100.99122418	     75.10984201	     -1.76262938	    -29.78511308	     26.95773953	     13.82766953	     -0.03878901	     -1.08826961	     -0.05387355	     -0.54413480	    -11.88347232	      1.36866463	    -29.69327912	    -14.38590144	     47.13337427	     13.00295375	     14.18076151	    -32.68223610	     85.39301390	      4.33948298	     86.41265011	     58.23149888	     74.83125422	    -10.72653899	     85.92447538	     31.76804473	     31.07985038	     -4.37031829	     -6.34942435	      4.97718656	      0.00079168	     -0.03068977	     -0.00479768	      0.01574199	     -0.01752320	     -0.00978377	      0.00652829	     -0.06556065	     -0.00116389	      0.00525094	     -0.18394226	      0.00005729	     -0.00165932	      0.00042129	      0.00014869	      0.00012163	      0.00004865	      0.00024327	      0.00015569	      0.00046707	      0.00026273	     -0.00192078	      0.00037554	      0.00045065	      0.00246194	      0.00863764	      0.00600879	     -0.00805345	      0.01944512	     -0.01844365	      0.00246194	      0.00863764	      0.00600879	      0.00054246	      0.01802638	     -0.00947219	      0.00390772	      0.00480328	      0.01586847	      0.00000000	      0.00754327	      0.00000000	     -0.00705199	     -0.03258935	     -0.00621842	      0.01878249	     -0.00074977	     -0.00739443	     -0.00087628	      0.01468816	     -0.00600879	      0.00242021	      0.02119768	     -0.01752564	     -0.00588361	      0.01272696	     -0.00538288	     -0.01226795	      0.02687266	     -0.03008569	     -0.02303370	      0.01422915	     -0.00721890	     -0.01527235	      0.03104543	     -0.03759668
      0.43333333	     -0.31704837	      0.13428672	     -0.13428672	      0.31704837	     -0.06419585	      0.51880824	      0.23320073	     -0.23320073	     -0.51880824	      0.06419585	    101.03106892	     75.06401934	     -1.76332480	    -30.01902457	     27.02064198	     14.02022991	     -0.03107565	     -1.07856652	     -0.04296412	     -0.53928326	    -11.88783349	      1.52740249	    -29.78329682	    -13.88244451	     47.82038384	     13.00154757	     12.99791793	    -32.51857457	     85.42978925	      4.32512306	     86.33449158	     58.84050643	     74.85659247	    -10.71121769	     85.89078981	     31.62059996	     30.96395363	     -4.31708065	     -6.13655291	      4.97300094	      0.00079376	     -0.03069698	     -0.00479884	      0.01575383	     -0.01754029	     -0.00977025	      0.00651406	     -0.06556985	     -0.00117940	      0.00526878	     -0.18393968	      0.00005215	     -0.00168242	      0.00042757	      0.00015003	      0.00012932	      0.00005173	      0.00025864	      0.00016553	      0.00049658	      0.00027933	     -0.00192225	      0.00037571	      0.00045085	      0.00246043	      0.00863237	      0.00600513	     -0.00804854	      0.01943326	     -0.01843240	      0.00246043	      0.00863237	      0.00600513	      0.00054213	      0.01801538	     -0.00946641	      0.00390596	      0.00480035	      0.01586411	      0.00000000	      0.00753401	      0.00000000	     -0.00704768	     -0.03256947	     -0.00621073	      0.01888649	     -0.00075774	     -0.00750804	     -0.00087575	      0.01467920	     -0.00600513	      0.00241873	      0.02118475	     -0.01751495	     -0.00588002	      0.01271919	     -0.00537959	     -0.01226047	      0.02685626	     -0.03006734	     -0.02301965	      0.01422047	     -0.00721449	     -0.01526303	      0.03102649	     -0.03757374
      0.46666667	     -0.31709627	      0.13430701	     -0.13430701	      0.31709627	     -0.06420554	      0.51888662	      0.23323597	     -0.23323597	     -0.51888662	      0.06420554	    101.01453157	     75.07535994	     -1.76303617	    -30.02774036	     27.01406262	     14.01930602	     -0.03105208	     -1.07858299	     -0.04293126	     -0.53929149	    -11.88785437	      1.52730677	    -29.78334951	    -13.88256015	     47.81842690	     13.00114084	     12.99795741	    -32.51867918	     85.42994915	      4.32503798	     86.33447291	     58.84041537	     74.85657012	    -10.71113273	     85.89125877	     31.62060763	     30.96263470	     -4.31742652	     -6.13715622	      4.97296785	      0.00079354	     -0.03069622	     -0.00479872	      0.01575376	     -0.01753850	     -0.00977030	      0.00651413	     -0.06556981	     -0.00117933	      0.00526870	     -0.18393969	      0.00005218	     -0.00168231	      0.00042754	      0.00015002	      0.00012930	      0.00005172	      0.00025860	      0.00016550	      0.00049651	      0.00027929	     -0.00192229	      0.00037571	      0.00045085	      0.00246081	      0.00863367	      0.00600603	     -0.00804975	      0.01943619	     -0.01843519	      0.00246081	      0.00863367	      0.00600603	      0.00054221	      0.01801810	     -0.00946785	      0.00390640	      0.00480108	      0.01586519	      0.00000000	      0.00753630	      0.00000000	     -0.00704875	     -0.03257439	     -0.00621263	      0.01889031	     -0.00075804	     -0.00751233	     -0.00087588	      0.01468142	     -0.00600603	      0.00241910	      0.02118795	     -0.01751760	     -0.00588091	      0.01272111	     -0.00538041	     -0.01226232	      0.02686032	     -0.03007188	     -0.02302313	      0.01422262	     -0.00721558	     -0.01526534	      0.03103117	     -0.03757942
      0.50000000	     -0.31651300	      0.13405997	     -0.13405997	      0.31651300	     -0.06408744	      0.51793217	      0.23280695	     -0.23280695	     -0.51793217	      0.06408744	    101.25025898	     74.93726500	     -1.76715039	    -30.95111941	     26.95468902	     14.97630567	     -0.03217079	     -1.08483619	     -0.04450741	     -0.54241809	    -11.86175749	      1.70072912	    -29.59668096	    -14.94324308	     47.47138551	     12.97278387	     14.11095853	    -33.54800676	     85.73595347	      4.15501463	     86.35365690	     58.60965829	     75.03731721	    -10.73997485	     86.05332399	     31.93346598	     31.22653409	     -4.53721774	     -6.30318653	      4.97067581	      0.00079158	     -0.03068942	     -0.00479762	      0.01581138	     -0.01752237	     -0.00970237	      0.00644342	     -0.06561553	     -0.00125642	      0.00535752	     -0.18392671	      0.00002700	     -0.00179715	      0.00045894	      0.00015638	      0.00012437	      0.00004975	      0.00024874	      0.00015919	      0.00047757	      0.00026863	     -0.00191328	      0.00037471	      0.00044965	      0.00245628	      0.00861779	      0.00599499	     -0.00803495	      0.01940044	     -0.01840128	      0.00245628	      0.00861779	      0.00599499	      0.00054121	      0.01798496	     -0.00945043	      0.00390111	      0.00479225	      0.01585203	      0.00000000	      0.00750842	      0.00000000	     -0.00703578	     -0.03251447	     -0.00618947	      0.01929361	     -0.00078969	     -0.00796738	     -0.00087427	      0.01465441	     -0.00599499	      0.00241465	      0.02114898	     -0.01748538	     -0.00587009	      0.01269771	     -0.00537051	     -0.01223976	      0.02681091	     -0.03001656	     -0.02298078	      0.01419646	     -0.00720231	     -0.01523726	      0.03097410	     -0.03751030
